<svg width="640" height="480" viewBox="0 0 640 480" fill="none" xmlns="http://www.w3.org/2000/svg">
  <rect width="640" height="480" rx="64" fill="#F8FEFB"/>
  <circle cx="458" cy="132" r="102" fill="#FFCF5A" opacity=".42"/>
  <circle cx="176" cy="340" r="112" fill="#A8F4DE" opacity=".5"/>
  <rect x="190" y="150" width="260" height="188" rx="46" fill="#243447"/>
  <rect x="218" y="184" width="204" height="106" rx="28" fill="#DDF8FA"/>
  <circle cx="280" cy="236" r="15" fill="#14202F"/>
  <circle cx="360" cy="236" r="15" fill="#14202F"/>
  <path d="M302 258c13 14 27 14 40 0" stroke="#0F766E" stroke-width="12" stroke-linecap="round"/>
  <path d="M218 168l-44-42c-18-17-47-4-47 21v42c0 27 31 42 52 25l39-32v-14Z" fill="#F86F91"/>
  <path d="M422 168l44-42c18-17 47-4 47 21v42c0 27-31 42-52 25l-39-32v-14Z" fill="#F86F91"/>
  <rect x="252" y="318" width="136" height="38" rx="19" fill="#0F766E"/>
  <path d="M184 386h272" stroke="#14202F" stroke-width="22" stroke-linecap="round" opacity=".12"/>
</svg>
