<svg xmlns="http://www.w3.org/2000/svg" viewBox="0 0 512 512" width="512" height="512">
  <rect width="512" height="512" rx="100" fill="#308240"/>
  <circle cx="256" cy="200" r="80" fill="#ffffff" opacity="0.12"/>
  <!-- Stylized leaf -->
  <path d="M256 110 C196 110 156 160 156 220 C156 280 196 330 256 330 C316 330 356 280 356 220 C356 160 316 110 256 110Z" fill="#ffffff" opacity="0.92"/>
  <!-- Leaf vein center -->
  <path d="M256 118 L256 328" stroke="#308240" stroke-width="6" stroke-linecap="round"/>
  <!-- Right veins -->
  <path d="M256 190 Q290 178 312 158" stroke="#308240" stroke-width="4.5" stroke-linecap="round" fill="none"/>
  <path d="M256 220 Q294 208 316 188" stroke="#308240" stroke-width="4.5" stroke-linecap="round" fill="none"/>
  <path d="M256 248 Q290 238 310 218" stroke="#308240" stroke-width="4" stroke-linecap="round" fill="none"/>
  <!-- Left veins -->
  <path d="M256 190 Q222 178 200 158" stroke="#308240" stroke-width="4.5" stroke-linecap="round" fill="none"/>
  <path d="M256 220 Q218 208 196 188" stroke="#308240" stroke-width="4.5" stroke-linecap="round" fill="none"/>
  <path d="M256 248 Q222 238 202 218" stroke="#308240" stroke-width="4" stroke-linecap="round" fill="none"/>
  <!-- Stem -->
  <path d="M256 330 Q240 368 232 392" stroke="#ffffff" stroke-width="7" stroke-linecap="round" fill="none" opacity="0.85"/>
  <!-- App name -->
  <text x="256" y="460" text-anchor="middle" font-family="Arial, sans-serif" font-size="38" font-weight="bold" fill="#ffffff" letter-spacing="1">RaithuFresh</text>
</svg>
