<svg xmlns="http://www.w3.org/2000/svg" width="360" height="260" viewBox="0 0 360 260" fill="none">
  <defs>
    <linearGradient id="g" x1="0" y1="0" x2="360" y2="260" gradientUnits="userSpaceOnUse">
      <stop stop-color="#ffffff" stop-opacity=".32"/>
      <stop offset=".52" stop-color="#76DDCC" stop-opacity=".16"/>
      <stop offset="1" stop-color="#D9BD72" stop-opacity=".22"/>
    </linearGradient>
  </defs>
  <path d="M28 198C88 137 116 68 214 84c61 10 83 55 118 90" stroke="url(#g)" stroke-width="2"/>
  <path d="M44 224C104 160 134 99 218 106c54 5 83 34 116 68" stroke="url(#g)" stroke-width="1.5" opacity=".65"/>
  <path d="M-10 72h380M-10 132h380M-10 192h380M60-10v280M144-10v280M228-10v280M312-10v280" stroke="#fff" stroke-opacity=".16"/>
  <circle cx="278" cy="68" r="46" fill="#fff" fill-opacity=".11"/>
  <circle cx="82" cy="74" r="26" fill="#fff" fill-opacity=".12"/>
</svg>
