<svg xmlns="http://www.w3.org/2000/svg" width="1200" height="630" viewBox="0 0 1200 630" role="img" aria-labelledby="title desc">
  <title id="title">DealNest premium deal discovery</title>
  <desc id="desc">Original share artwork for DealNest, a premium deals and coupon community.</desc>
  <defs>
    <linearGradient id="bg" x1="0" y1="0" x2="1" y2="1">
      <stop offset="0" stop-color="#f7fbf8"/>
      <stop offset=".48" stop-color="#e8f4ef"/>
      <stop offset="1" stop-color="#f8efd8"/>
    </linearGradient>
    <linearGradient id="accent" x1="0" y1="0" x2="1" y2="1">
      <stop offset="0" stop-color="#164f47"/>
      <stop offset="1" stop-color="#0f766e"/>
    </linearGradient>
    <filter id="shadow" x="-20%" y="-20%" width="140%" height="140%">
      <feDropShadow dx="0" dy="28" stdDeviation="26" flood-color="#14202f" flood-opacity=".18"/>
    </filter>
  </defs>
  <rect width="1200" height="630" fill="url(#bg)"/>
  <circle cx="985" cy="115" r="220" fill="#bfe7da" opacity=".55"/>
  <circle cx="110" cy="565" r="260" fill="#f7e9b5" opacity=".62"/>
  <path d="M0 485 C220 420 360 560 570 500 C790 438 900 300 1200 370 L1200 630 L0 630 Z" fill="#ffffff" opacity=".52"/>
  <g filter="url(#shadow)">
    <rect x="118" y="112" width="964" height="406" rx="44" fill="#ffffff" opacity=".88"/>
    <rect x="118" y="112" width="964" height="406" rx="44" fill="none" stroke="#d6e2dd" stroke-width="2"/>
  </g>
  <g transform="translate(174 170)">
    <rect width="96" height="96" rx="28" fill="url(#accent)"/>
    <text x="48" y="61" text-anchor="middle" font-family="Inter, Arial, sans-serif" font-size="34" font-weight="900" fill="#ffffff">DN</text>
  </g>
  <text x="174" y="318" font-family="Inter, Arial, sans-serif" font-size="82" font-weight="900" fill="#14202f">DealNest</text>
  <text x="180" y="375" font-family="Inter, Arial, sans-serif" font-size="28" font-weight="700" fill="#486073">Premium deal discovery, coupons, and community heat.</text>
  <g transform="translate(710 178)">
    <rect width="292" height="228" rx="34" fill="#f8fbfa" stroke="#d7e3de"/>
    <circle cx="78" cy="72" r="42" fill="#bfe7da"/>
    <rect x="132" y="48" width="112" height="16" rx="8" fill="#dce7e2"/>
    <rect x="132" y="82" width="88" height="14" rx="7" fill="#e8eee9"/>
    <text x="42" y="164" font-family="Inter, Arial, sans-serif" font-size="42" font-weight="900" fill="#164f47">$229</text>
    <text x="42" y="198" font-family="Inter, Arial, sans-serif" font-size="18" font-weight="800" fill="#d07a20">41% off</text>
  </g>
  <g transform="translate(174 430)">
    <rect width="174" height="48" rx="24" fill="#164f47"/>
    <text x="87" y="31" text-anchor="middle" font-family="Inter, Arial, sans-serif" font-size="16" font-weight="900" fill="#ffffff">razzrohith.com</text>
  </g>
</svg>
