<svg xmlns="http://www.w3.org/2000/svg" viewBox="0 0 40 40" fill="none" role="img" aria-label="Vegetable">
  <!-- Brinjal / eggplant body -->
  <path d="M20 34 C13 34 10 26 10 20 C10 12 14 8 20 8 C26 8 30 12 30 20 C30 26 27 34 20 34Z" fill="#7c3aed"/>
  <!-- Highlight -->
  <ellipse cx="15" cy="14" rx="3" ry="5" fill="white" opacity="0.25" transform="rotate(-10 15 14)"/>
  <!-- Bottom shadow -->
  <ellipse cx="20" cy="30" rx="8" ry="3.5" fill="#5b21b6" opacity="0.22"/>
  <!-- Green cap -->
  <path d="M14 10 C14 6 17 4 20 6 C23 4 26 6 26 10 C22 8 18 8 14 10Z" fill="#15803d"/>
  <!-- Stem -->
  <line x1="20" y1="6" x2="20" y2="2" stroke="#15803d" stroke-width="2" stroke-linecap="round"/>
</svg>
