<svg xmlns="http://www.w3.org/2000/svg" width="180" height="96" viewBox="0 0 180 96" fill="none">
  <path d="M18 20c0-8 6-14 14-14h116c8 0 14 6 14 14 0 8 6 14 14 14v28c-8 0-14 6-14 14s-6 14-14 14H32c-8 0-14-6-14-14S12 62 4 62V34c8 0 14-6 14-14Z" fill="url(#g)" fill-opacity=".9"/>
  <path d="M126 18v60" stroke="#07100F" stroke-opacity=".24" stroke-width="2" stroke-dasharray="6 6"/>
  <circle cx="52" cy="48" r="21" fill="#fff" fill-opacity=".24"/>
  <path d="M43 54l18-18M44 38h.1M60 58h.1" stroke="#07100F" stroke-width="5" stroke-linecap="round"/>
  <defs>
    <linearGradient id="g" x1="5" y1="8" x2="166" y2="93" gradientUnits="userSpaceOnUse">
      <stop stop-color="#76DDCC"/>
      <stop offset=".55" stop-color="#F0E4B8"/>
      <stop offset="1" stop-color="#D9BD72"/>
    </linearGradient>
  </defs>
</svg>
